Coordinates
version=1
nRows=9
nColumns=63
inDegrees=yes

Units are S.I. units (second, meters, Newtons, ...)
If the header above contains a line with 'inDegrees', this indicates whether rotational values are in degrees (yes) or radians (no).

endheader
time	pelvis_tilt	pelvis_list	pelvis_rotation	pelvis_tx	pelvis_ty	pelvis_tz	hip_flexion_r	hip_adduction_r	hip_rotation_r	knee_angle_r	knee_angle_r_beta	ankle_angle_r	subtalar_angle_r	mtp_angle_r	hip_flexion_l	hip_adduction_l	hip_rotation_l	knee_angle_l	knee_angle_l_beta	ankle_angle_l	subtalar_angle_l	mtp_angle_l	L5_S1_Flex_Ext	L5_S1_Lat_Bending	L5_S1_axial_rotation	L4_L5_Flex_Ext	L4_L5_Lat_Bending	L4_L5_axial_rotation	L3_L4_Flex_Ext	L3_L4_Lat_Bending	L3_L4_axial_rotation	L2_L3_Flex_Ext	L2_L3_Lat_Bending	L2_L3_axial_rotation	L1_L2_Flex_Ext	L1_L2_Lat_Bending	L1_L2_axial_rotation	L1_T12_Flex_Ext	L1_T12_Lat_Bending	L1_T12_axial_rotation	Abs_r3	Abs_r2	Abs_r1	Abs_t1	Abs_t2	neck_flexion	neck_bending	neck_rotation	arm_flex_r	arm_add_r	arm_rot_r	elbow_flex_r	pro_sup_r	wrist_flex_r	wrist_dev_r	arm_flex_l	arm_add_l	arm_rot_l	elbow_flex_l	pro_sup_l	wrist_flex_l	wrist_dev_l
0.000000	-2.588784	-4.394237	81.480486	0.104179	0.955171	0.287412	2.499846	-1.855949	-17.522285	9.166430	0.159984	15.898894	17.619073	0.000000	2.120654	2.301807	-1.266201	8.654144	0.151043	6.847272	-16.024840	0.000000	0.092311	-0.152000	1.380926	0.171432	-0.202160	1.467234	0.151658	-0.369573	1.467234	0.105503	-0.369573	1.208311	0.085720	-0.309959	1.122003	0.052747	-0.235448	1.035695	0.659371	-1.719456	7.680298	0.000000	0.000000	12.376305	-0.116915	-16.133680	21.251371	-8.319738	67.708810	50.924609	25.030966	8.821342	14.781030	30.100445	-6.997439	96.880629	43.731505	18.356639	7.459514	4.948794
0.017544	-2.647964	-4.452409	81.581155	0.104485	0.955016	0.287355	2.364852	-1.898882	-16.423369	9.037203	0.157729	16.132988	17.437211	0.000000	2.186364	2.278349	-1.703761	8.742931	0.152593	6.581710	-15.850481	0.000000	0.095000	-0.165619	1.519168	0.176424	-0.220273	1.614116	0.156075	-0.402686	1.614116	0.108575	-0.402686	1.329272	0.088217	-0.337730	1.234324	0.054283	-0.256544	1.139376	0.678573	-1.873515	8.449155	0.000000	0.000000	12.475878	-0.480454	-17.498206	19.079431	-8.598392	63.402716	52.046843	36.266231	10.965120	15.341136	29.985624	-7.349482	95.655026	44.754053	21.564984	7.444273	6.163612
0.035088	-2.693499	-4.497963	81.662515	0.104791	0.954986	0.287293	2.251997	-1.932581	-15.603702	8.940153	0.156035	16.257254	17.293660	0.000000	2.230731	2.254520	-2.050490	8.797158	0.153539	6.424416	-15.659175	0.000000	0.097950	-0.175329	1.611638	0.181903	-0.233187	1.712366	0.160922	-0.426294	1.712366	0.111947	-0.426294	1.410184	0.090956	-0.357530	1.309456	0.055969	-0.271584	1.208729	0.699647	-1.983353	8.963449	0.000000	0.000000	12.532561	-0.716240	-18.349039	17.520353	-8.789695	60.096743	52.938102	44.149188	12.211910	16.026122	29.841112	-7.619735	94.376059	45.506459	23.924949	7.422598	6.991159
0.052632	-2.727207	-4.531944	81.725763	0.105093	0.955062	0.287225	2.159611	-1.958345	-15.033621	8.871667	0.154840	16.287099	17.185569	0.000000	2.256289	2.231370	-2.314398	8.819929	0.153937	6.363153	-15.456102	0.000000	0.101083	-0.181521	1.663228	0.187721	-0.241423	1.767180	0.166069	-0.441350	1.767180	0.115527	-0.441350	1.455325	0.093865	-0.370158	1.351373	0.057759	-0.281176	1.247421	0.722024	-2.053402	9.250376	0.000000	0.000000	12.551649	-0.839556	-18.740648	16.511374	-8.901481	57.699214	53.613263	49.063826	12.681789	16.804635	29.670786	-7.816739	93.064818	46.016938	25.521836	7.394542	7.485537
0.070175	-2.750906	-4.555396	81.772098	0.105389	0.955229	0.287156	2.086019	-1.977467	-14.683459	8.828137	0.154080	16.237933	17.110084	0.000000	2.265570	2.209946	-2.503491	8.814347	0.153839	6.385684	-15.246441	0.000000	0.104318	-0.184588	1.678827	0.193730	-0.245502	1.783754	0.171385	-0.448806	1.783754	0.119226	-0.448806	1.468974	0.096870	-0.376411	1.364047	0.059608	-0.285926	1.259120	0.745136	-2.088092	9.337132	0.000000	0.000000	12.538438	-0.865684	-18.727501	15.989729	-8.941581	56.118453	54.087207	51.394135	12.494833	17.645324	29.478522	-7.949039	91.742397	46.313707	26.440947	7.360154	7.700846
0.087719	-2.766414	-4.569366	81.802719	0.105674	0.955469	0.287085	2.029551	-1.991245	-14.523553	8.805952	0.153693	16.125166	17.064354	0.000000	2.261105	2.191299	-2.625778	8.783515	0.153301	6.479772	-15.035372	0.000000	0.107578	-0.184920	1.663324	0.199783	-0.245944	1.767282	0.176739	-0.449615	1.767282	0.122951	-0.449615	1.455409	0.099897	-0.377089	1.351451	0.061470	-0.286441	1.247493	0.768417	-2.091854	9.250911	0.000000	0.000000	12.498222	-0.809906	-18.364068	15.892655	-8.917828	55.262782	54.374810	51.524104	11.771118	18.516834	29.268196	-8.025175	90.429888	46.424981	26.767586	7.319488	7.691187
0.105263	-2.775548	-4.574896	81.818823	0.105946	0.955765	0.287016	1.988534	-2.000975	-14.524237	8.801500	0.153615	15.964205	17.045526	0.000000	2.245429	2.176475	-2.689267	8.730537	0.152377	6.633179	-14.828074	0.000000	0.110781	-0.182910	1.621610	0.205731	-0.243271	1.722961	0.182002	-0.444728	1.722961	0.126612	-0.444728	1.418909	0.102871	-0.372991	1.317558	0.063300	-0.283328	1.216208	0.791297	-2.069118	9.018909	0.000000	0.000000	12.436298	-0.687505	-17.704819	16.157389	-8.838055	55.040525	54.490953	49.837722	10.630719	19.387815	29.043682	-8.053690	89.148382	46.378979	26.587057	7.272593	7.510664
0.122807	-2.780125	-4.573034	81.821609	0.106202	0.956100	0.286950	1.961295	-2.007953	-14.655846	8.811171	0.153784	15.770462	17.050748	0.000000	2.221073	2.166524	-2.701966	8.658515	0.151120	6.833669	-14.629727	0.000000	0.113849	-0.178950	1.558574	0.211429	-0.238003	1.655985	0.187042	-0.435099	1.655985	0.130118	-0.435099	1.363752	0.105720	-0.364914	1.266341	0.065053	-0.277193	1.168931	0.813211	-2.024316	8.668321	0.000000	0.000000	12.357961	-0.513762	-16.804221	16.721166	-8.710094	55.360005	54.450513	46.718980	9.193712	20.226912	28.808858	-8.043128	87.918972	46.203914	25.984660	7.219522	7.213376
0.140351	-2.781965	-4.564823	81.812275	0.106437	0.956458	0.286889	1.946163	-2.013474	-14.888715	8.831355	0.154136	15.559344	17.077167	0.000000	2.190570	2.162495	-2.671883	8.570553	0.149584	7.069004	-14.445510	0.000000	0.116702	-0.173430	1.479106	0.216727	-0.230662	1.571550	0.191729	-0.421678	1.571550	0.133378	-0.421678	1.294218	0.108369	-0.353659	1.201774	0.066683	-0.268643	1.109329	0.833588	-1.961878	8.226344	0.000000	0.000000	12.268506	-0.303961	-15.716743	17.521223	-8.541777	56.129546	54.268369	42.551866	7.580174	21.002775	28.567599	-8.002030	86.762751	45.928005	25.045700	7.160326	6.853425
